<svg width="177" height="41" viewBox="0 0 177 41" fill="none" xmlns="http://www.w3.org/2000/svg">
<path fill-rule="evenodd" clip-rule="evenodd" d="M0.195312 33.3257H5.92448C14.9883 33.3257 22.3361 25.9779 22.3361 16.9141H5.92459H2.72018C1.32574 16.9141 0.195312 18.0445 0.195312 19.4389V33.3257Z" fill="#A6FF00"/>
<path fill-rule="evenodd" clip-rule="evenodd" d="M41.9525 16.9126C43.3469 16.9126 44.4773 15.7821 44.4773 14.3875V0.5H38.7481L38.7481 16.9126H41.9525ZM38.7481 16.9126L38.7481 0.5C29.6842 0.5 22.3363 7.84816 22.3363 16.9126L38.7481 16.9126Z" fill="#A6FF00"/>
<path d="M167.462 33.2315C165.671 33.2315 164.123 32.9453 162.817 32.373C161.511 31.8006 160.476 31.0008 159.713 29.9735C158.964 28.9462 158.509 27.7502 158.348 26.3853L158.326 26.1872H162.156L162.2 26.4073C162.435 27.552 162.986 28.4473 163.851 29.093C164.717 29.724 165.928 30.0396 167.484 30.0396C168.526 30.0396 169.413 29.9075 170.147 29.6433C170.881 29.3645 171.446 28.9756 171.842 28.4766C172.239 27.963 172.437 27.3613 172.437 26.6715V26.6495C172.437 25.8277 172.187 25.1673 171.688 24.6683C171.189 24.1693 170.287 23.7584 168.981 23.4355L165.348 22.555C163.91 22.2028 162.714 21.7478 161.76 21.1902C160.821 20.6178 160.116 19.9207 159.647 19.0989C159.177 18.2771 158.942 17.3158 158.942 16.2151V16.1931C158.942 14.8723 159.295 13.7056 159.999 12.693C160.718 11.6804 161.709 10.8879 162.971 10.3156C164.248 9.74321 165.708 9.45703 167.352 9.45703C169.025 9.45703 170.477 9.75788 171.71 10.3596C172.958 10.9466 173.934 11.7538 174.638 12.7811C175.357 13.7937 175.761 14.9384 175.849 16.2151L175.871 16.5013H172.217L172.194 16.3472C172.048 15.2319 171.556 14.3367 170.72 13.6616C169.898 12.9865 168.775 12.649 167.352 12.649C166.427 12.649 165.627 12.7884 164.952 13.0672C164.277 13.3461 163.756 13.7423 163.389 14.256C163.037 14.7549 162.861 15.3419 162.861 16.017V16.039C162.861 16.5527 162.978 17.0223 163.213 17.4479C163.463 17.8588 163.851 18.2184 164.38 18.5266C164.908 18.8347 165.59 19.0916 166.427 19.297L170.059 20.1776C172.378 20.7352 174.007 21.5057 174.946 22.489C175.885 23.4576 176.355 24.7563 176.355 26.3853V26.4073C176.355 27.7428 175.966 28.9242 175.188 29.9515C174.425 30.9788 173.369 31.786 172.018 32.373C170.683 32.9453 169.164 33.2315 167.462 33.2315Z" fill="#FDFDFD"/>
<path d="M144.11 33.2329C142.158 33.2329 140.448 32.7487 138.981 31.7801C137.528 30.7968 136.398 29.4173 135.591 27.6415C134.783 25.8511 134.38 23.7525 134.38 21.3457V21.3237C134.38 18.9169 134.783 16.8256 135.591 15.0499C136.412 13.2741 137.55 11.902 139.003 10.9334C140.456 9.95011 142.136 9.45848 144.044 9.45848C145.13 9.45848 146.135 9.63458 147.06 9.9868C147.999 10.3243 148.835 10.816 149.569 11.4617C150.303 12.0927 150.905 12.8485 151.374 13.7291H151.462V1.02734H155.293V32.7927H151.462V28.9183H151.374C150.905 29.8135 150.31 30.584 149.591 31.2297C148.872 31.8608 148.05 32.3524 147.126 32.7046C146.216 33.0568 145.21 33.2329 144.11 33.2329ZM144.858 29.8429C146.15 29.8429 147.294 29.4907 148.292 28.7862C149.29 28.0818 150.068 27.0912 150.626 25.8144C151.198 24.5377 151.484 23.0481 151.484 21.3457V21.3237C151.484 19.6213 151.198 18.1391 150.626 16.877C150.053 15.6002 149.268 14.6096 148.27 13.9052C147.287 13.2008 146.15 12.8485 144.858 12.8485C143.508 12.8485 142.341 13.1934 141.358 13.8832C140.375 14.5729 139.619 15.5489 139.091 16.811C138.562 18.0731 138.298 19.5773 138.298 21.3237V21.3457C138.298 23.0921 138.562 24.6037 139.091 25.8805C139.619 27.1573 140.375 28.1405 141.358 28.8303C142.341 29.5053 143.508 29.8429 144.858 29.8429Z" fill="#FDFDFD"/>
<path d="M117.598 40.4971C117.232 40.4971 116.857 40.4751 116.476 40.431C116.109 40.4017 115.801 40.365 115.551 40.321V37.1951C115.713 37.2244 115.896 37.2538 116.101 37.2831C116.322 37.3125 116.549 37.3271 116.784 37.3271C118.002 37.3271 118.971 37.1143 119.69 36.6887C120.423 36.2632 121.018 35.4046 121.473 34.1132L121.935 32.8144L113.438 9.89844H117.532L124.136 29.8426L123.322 28.962H124.467L123.652 29.8426L130.278 9.89844H134.307L125.369 34.2232C124.826 35.6761 124.217 36.8649 123.542 37.7894C122.867 38.714 122.052 39.3964 121.099 39.8367C120.145 40.2769 118.978 40.4971 117.598 40.4971Z" fill="#FDFDFD"/>
<path d="M100.26 32.7912V9.8973H104.091V13.7717H104.179C104.56 12.4509 105.221 11.4015 106.16 10.6237C107.099 9.84593 108.215 9.45703 109.506 9.45703C109.844 9.45703 110.145 9.47904 110.409 9.52307C110.688 9.55242 110.9 9.58177 111.047 9.61113V13.3314C110.9 13.2727 110.636 13.2213 110.255 13.1773C109.888 13.1333 109.469 13.1113 109 13.1113C108.017 13.1113 107.151 13.3314 106.402 13.7717C105.668 14.2119 105.096 14.8503 104.685 15.6868C104.289 16.5087 104.091 17.4993 104.091 18.6586V32.7912H100.26Z" fill="#FDFDFD"/>
<path d="M94.6604 33.2348C92.5618 33.2348 90.9915 32.7358 89.9495 31.7379C88.9075 30.74 88.3866 29.1477 88.3866 26.961V13.0705H85.0405V9.90061H88.3866V3.71484H92.349V9.90061H96.7076V13.0705H92.349V26.939C92.349 28.1571 92.6131 28.9862 93.1415 29.4265C93.6698 29.8521 94.4476 30.0649 95.4749 30.0649C95.7097 30.0649 95.9298 30.0575 96.1353 30.0429C96.3554 30.0135 96.5462 29.9915 96.7076 29.9768V33.0807C96.4728 33.1101 96.1646 33.1394 95.7831 33.1688C95.4162 33.2128 95.0419 33.2348 94.6604 33.2348Z" fill="#FDFDFD"/>
<path d="M71.4363 33.322C69.1469 33.322 67.129 32.9698 65.3826 32.2653C63.6509 31.5462 62.2714 30.5263 61.2441 29.2055C60.2314 27.8847 59.6591 26.3217 59.527 24.5166L59.505 24.2084H63.4674L63.5114 24.5166C63.6729 25.5733 64.1058 26.4905 64.8102 27.2683C65.5147 28.0314 66.4466 28.6258 67.6059 29.0514C68.78 29.4623 70.1301 29.6678 71.6564 29.6678C73.1827 29.6678 74.5035 29.455 75.6188 29.0294C76.7342 28.5891 77.5927 27.9654 78.1944 27.1582C78.8108 26.3511 79.1189 25.4045 79.1189 24.3185V24.2965C79.1189 22.9023 78.6347 21.787 77.6661 20.9504C76.6975 20.1139 75.1198 19.4535 72.9332 18.9692L69.411 18.1988C66.3145 17.509 64.0178 16.4524 62.5208 15.0288C61.0386 13.5906 60.2975 11.7122 60.2975 9.39341V9.3714C60.3122 7.625 60.7965 6.0914 61.7504 4.7706C62.7043 3.43512 64.0178 2.39315 65.6908 1.6447C67.3785 0.881566 69.3083 0.5 71.4803 0.5C73.5496 0.5 75.3987 0.874228 77.0277 1.62268C78.6567 2.35646 79.9555 3.38376 80.924 4.70456C81.9073 6.02536 82.4576 7.55163 82.575 9.28335L82.5971 9.61355H78.6347L78.5906 9.30536C78.4292 8.21937 78.033 7.2948 77.4019 6.53167C76.7708 5.76854 75.9417 5.18152 74.9144 4.7706C73.9018 4.35968 72.7204 4.15422 71.3702 4.15422C69.9614 4.15422 68.7286 4.36702 67.672 4.79261C66.6153 5.21821 65.7935 5.81257 65.2065 6.5757C64.6341 7.33883 64.348 8.23404 64.348 9.26133V9.28335C64.348 10.5748 64.8396 11.6388 65.8229 12.4753C66.8061 13.3118 68.3324 13.9575 70.4016 14.4125L73.9238 15.1829C76.0958 15.6526 77.8568 16.2763 79.207 17.0541C80.5718 17.8319 81.5698 18.8005 82.2008 19.9598C82.8465 21.1045 83.1694 22.484 83.1694 24.0984V24.1204C83.1694 25.9989 82.6925 27.6278 81.7385 29.0074C80.7993 30.3869 79.4491 31.4508 77.6881 32.1993C75.9417 32.9478 73.8577 33.322 71.4363 33.322Z" fill="#FDFDFD"/>
</svg>
