<svg width="124" height="147" viewBox="0 0 124 147" fill="none" xmlns="http://www.w3.org/2000/svg">
<path d="M55.7639 5.19213C54.0337 6.3604 52.7902 8.36006 51.6214 10.7382C50.428 13.1663 49.0993 16.4641 47.4003 20.681L47.3585 20.7847L8.34735 117.608L8.30546 117.712C6.57424 122.009 5.22163 125.366 4.38407 127.984C3.56496 130.545 3.06583 132.879 3.51399 134.936C4.51942 139.551 8.24369 143.081 12.9051 143.839C14.9829 144.177 17.2874 143.554 19.8009 142.599C22.3712 141.623 25.6518 140.093 29.8508 138.134L29.9509 138.088L51.8436 127.877C55.672 126.092 57.249 125.372 58.8439 125.018C61.0539 124.528 63.3445 124.528 65.5545 125.018C67.1495 125.372 68.7264 126.092 72.5548 127.877L94.4476 138.088L94.5479 138.135C98.7467 140.093 102.027 141.623 104.598 142.599C107.111 143.554 109.416 144.177 111.493 143.839C116.155 143.081 119.879 139.551 120.884 134.936C121.333 132.879 120.833 130.545 120.014 127.984C119.177 125.365 117.824 122.008 116.093 117.711L116.051 117.608L77.0399 20.7847L76.9981 20.6809C75.2991 16.464 73.9704 13.1663 72.7771 10.7382C71.6082 8.36005 70.3648 6.3604 68.6345 5.19213C64.746 2.56659 59.6524 2.56659 55.7639 5.19213Z" fill="#FDFDFD" stroke="#101010" stroke-width="5"/>
</svg>
