<svg width="32" height="32" viewBox="0 0 32 32" fill="none" xmlns="http://www.w3.org/2000/svg">
<g clip-path="url(#clip0_151_1058)">
<circle cx="16" cy="16" r="16" fill="url(#paint0_linear_151_1058)"/>
<path fill-rule="evenodd" clip-rule="evenodd" d="M20.3113 5.3335H11.6886C8.18423 5.3335 5.33325 8.18448 5.33325 11.6888V20.3115C5.33325 23.8158 8.18423 26.6668 11.6886 26.6668H20.3113C23.8156 26.6668 26.6666 23.8158 26.6666 20.3115V11.6888C26.6665 8.18448 23.8156 5.3335 20.3113 5.3335ZM24.5205 20.3115C24.5205 22.6362 22.6359 24.5207 20.3113 24.5207H11.6886C9.36392 24.5207 7.47938 22.6362 7.47938 20.3115V11.6888C7.47938 9.36412 9.36392 7.47963 11.6886 7.47963H20.3113C22.6359 7.47963 24.5205 9.36412 24.5205 11.6888V20.3115ZM15.9999 10.4826C12.9575 10.4826 10.4823 12.9578 10.4823 16.0001C10.4823 19.0425 12.9575 21.5177 15.9999 21.5177C19.0423 21.5177 21.5175 19.0425 21.5175 16.0001C21.5175 12.9577 19.0423 10.4826 15.9999 10.4826ZM15.9999 19.3716C14.1379 19.3716 12.6285 17.8621 12.6285 16.0001C12.6285 14.1381 14.1379 12.6287 15.9999 12.6287C17.8619 12.6287 19.3713 14.1381 19.3713 16.0001C19.3713 17.8621 17.8619 19.3716 15.9999 19.3716ZM22.8503 10.5241C22.8503 11.2542 22.2584 11.8462 21.5282 11.8462C20.798 11.8462 20.2061 11.2542 20.2061 10.5241C20.2061 9.79387 20.798 9.20193 21.5282 9.20193C22.2584 9.20193 22.8503 9.79387 22.8503 10.5241Z" fill="white"/>
</g>
<defs>
<linearGradient id="paint0_linear_151_1058" x1="6.5" y1="32" x2="21" y2="4.14905e-07" gradientUnits="userSpaceOnUse">
<stop stop-color="#FBD06F"/>
<stop offset="0.3" stop-color="#F16C2E"/>
<stop offset="0.6" stop-color="#C82E96"/>
<stop offset="1" stop-color="#4E6AD6"/>
</linearGradient>
<clipPath id="clip0_151_1058">
<rect width="32" height="32" fill="white"/>
</clipPath>
</defs>
</svg>
