<svg width="32" height="32" viewBox="0 0 32 32" fill="none" xmlns="http://www.w3.org/2000/svg">
<g clip-path="url(#clip0_151_1097)">
<path d="M0 16C0 7.16344 7.16344 0 16 0C24.8366 0 32 7.16344 32 16C32 24.8366 24.8366 32 16 32C7.16344 32 0 24.8366 0 16Z" fill="#0077B5"/>
<path fill-rule="evenodd" clip-rule="evenodd" d="M11.5457 9.8818C11.5457 10.9279 10.7583 11.7649 9.49401 11.7649H9.47084C8.25352 11.7649 7.46655 10.9279 7.46655 9.8818C7.46655 8.8136 8.27749 8 9.51791 8C10.7583 8 11.5222 8.8136 11.5457 9.8818ZM11.3069 13.2519V24.1464H7.68096V13.2519H11.3069ZM24.3833 24.1464L24.3835 17.8998C24.3835 14.5535 22.5947 12.9961 20.2086 12.9961C18.2835 12.9961 17.4216 14.0535 16.9403 14.7953V13.2522H13.314C13.3617 14.2745 13.314 24.1467 13.314 24.1467H16.9403V18.0623C16.9403 17.7367 16.9639 17.4119 17.0597 17.1788C17.3218 16.5283 17.9185 15.8548 18.9202 15.8548C20.2328 15.8548 20.7575 16.8538 20.7575 18.3178V24.1464H24.3833Z" fill="white"/>
</g>
<defs>
<clipPath id="clip0_151_1097">
<rect width="32" height="32" fill="white"/>
</clipPath>
</defs>
</svg>
