<svg width="100" height="101" viewBox="0 0 100 101" fill="none" xmlns="http://www.w3.org/2000/svg">
<path d="M92.875 74.3281H88.0938V69.5625H83.3437V64.8125H78.5625V55.2812H73.8125V64.8125H69.0625V69.5625H64.2812V74.3437H54.7812V79.0937H64.2812V83.8437H69.0625V88.625H73.8125V93.375H78.5625V98.125H92.875V93.375H97.625V79.0937H92.875V74.3281ZM92.875 88.6094H88.0938V83.8281H83.3437V79.0781H78.5625V74.3281H83.3437V79.0781H88.0938V83.8281H92.875V88.6094Z" fill="#00DED3"/>
<path d="M83.3438 31.4531H78.5625V55.2656H83.3438V31.4531Z" fill="#00DED3"/>
<path d="M78.5625 21.9219H73.8125V31.4531H78.5625V21.9219Z" fill="#00DED3"/>
<path d="M73.8125 17.1719H69.0625V21.9219H73.8125V17.1719Z" fill="#00DED3"/>
<path d="M69.0625 40.9844H64.2812V45.7344H69.0625V40.9844Z" fill="#00DED3"/>
<path d="M69.0625 12.4219H64.2812V17.1719H69.0625V12.4219Z" fill="#00DED3"/>
<path d="M64.2813 45.7344H59.5312V50.5156H64.2813V45.7344Z" fill="#00DED3"/>
<path d="M64.2813 36.2031H59.5312V40.9844H64.2813V36.2031Z" fill="#00DED3"/>
<path d="M59.5312 50.5156H54.7812V55.2656H59.5312V50.5156Z" fill="#00DED3"/>
<path d="M59.5312 31.4531H54.7812V36.2031H59.5312V31.4531Z" fill="#00DED3"/>
<path d="M64.2812 7.64062H54.7812V12.4219H64.2812V7.64062Z" fill="#00DED3"/>
<path d="M54.7813 79.0781H30.9688V83.8281H54.7813V79.0781Z" fill="#00DED3"/>
<path d="M50 31.4531H45.25V40.9844H50V31.4531Z" fill="#00DED3"/>
<path d="M45.25 40.9844H40.4688V45.7344H45.25V40.9844Z" fill="#00DED3"/>
<path d="M40.4687 45.7344H35.7188V55.2656H40.4687V45.7344Z" fill="#00DED3"/>
<path d="M54.7813 2.89062H30.9688V7.64063H54.7813V2.89062Z" fill="#00DED3"/>
<path d="M30.9687 74.3281H21.4375V79.0781H30.9687V74.3281Z" fill="#00DED3"/>
<path d="M30.9687 50.5156H26.1875V55.2656H30.9687V50.5156Z" fill="#00DED3"/>
<path d="M30.9687 31.4531H26.1875V36.2031H30.9687V31.4531Z" fill="#00DED3"/>
<path d="M30.9687 7.64062H21.4375V12.4219H30.9687V7.64062Z" fill="#00DED3"/>
<path d="M26.1875 45.7344H21.4375V50.5156H26.1875V45.7344Z" fill="#00DED3"/>
<path d="M26.1875 36.2031H21.4375V40.9844H26.1875V36.2031Z" fill="#00DED3"/>
<path d="M21.4375 69.5469H16.6875V74.3281H21.4375V69.5469Z" fill="#00DED3"/>
<path d="M21.4375 40.9844H16.6875V45.7344H21.4375V40.9844Z" fill="#00DED3"/>
<path d="M21.4375 12.4219H16.6875V17.1719H21.4375V12.4219Z" fill="#00DED3"/>
<path d="M16.6875 64.7969H11.9062V69.5469H16.6875V64.7969Z" fill="#00DED3"/>
<path d="M16.6875 17.1719H11.9062V21.9219H16.6875V17.1719Z" fill="#00DED3"/>
<path d="M11.9062 55.2656H7.15625V64.7969H11.9062V55.2656Z" fill="#00DED3"/>
<path d="M11.9062 21.9219H7.15625V31.4531H11.9062V21.9219Z" fill="#00DED3"/>
<path d="M7.15625 31.4531H2.375V55.2656H7.15625V31.4531Z" fill="#00DED3"/>
</svg>
