<svg width="120" height="120" viewBox="0 0 120 120" fill="none" xmlns="http://www.w3.org/2000/svg">
<path d="M111.431 39.9937H105.694V80.0061H111.431V39.9937Z" fill="#FFFA00"/>
<path d="M105.694 80.0061H99.9938V85.7061H105.694V80.0061Z" fill="#FFFA00"/>
<path d="M105.694 34.2937H99.9938V39.9937H105.694V34.2937Z" fill="#FFFA00"/>
<path d="M99.9938 39.9937H88.5563V45.6937H99.9938V39.9937Z" fill="#FFFA00"/>
<path d="M99.9938 85.7063H88.5563V91.4438H99.9938V85.7063Z" fill="#FFFA00"/>
<path d="M94.2937 34.2937V28.5562H88.5562V22.8562H77.1562V28.5562H71.4187V34.2937H77.1562V39.9937H88.5562V34.2937H94.2937Z" fill="#FFFA00"/>
<path d="M88.5562 45.6936H77.1562V51.4311H88.5562V45.6936Z" fill="#FFFA00"/>
<path d="M88.5562 91.4436H77.1562V97.1436H88.5562V91.4436Z" fill="#FFFA00"/>
<path d="M65.7187 108.581V102.844H77.1563V97.1436H65.7187V57.1311H54.2812V62.8686H59.9812V102.844H54.2812V108.581H65.7187Z" fill="#FFFA00"/>
<path d="M77.1563 51.4312H65.7188V57.1312H77.1563V51.4312Z" fill="#FFFA00"/>
<path d="M65.7187 45.6937H71.4187V39.9937H65.7187V34.2937H54.2812V39.9937H48.5812V45.6937H54.2812V51.4312H65.7187V45.6937Z" fill="#FFFA00"/>
<path d="M54.2812 11.4187V17.1562H48.5812V22.8562H54.2812V28.5562H65.7187V22.8562H71.4187V17.1562H65.7187V11.4187H54.2812Z" fill="#FFFA00"/>
<path d="M54.2813 97.1438H42.8438V102.844H54.2813V97.1438Z" fill="#FFFA00"/>
<path d="M54.2813 51.4312H42.8438V57.1312H54.2813V51.4312Z" fill="#FFFA00"/>
<path d="M42.8437 91.4436H31.4437V97.1436H42.8437V91.4436Z" fill="#FFFA00"/>
<path d="M42.8437 34.2937H48.5812V28.5562H42.8437V22.8562H31.4437V28.5562H25.7062V34.2937H31.4437V39.9937H42.8437V34.2937Z" fill="#FFFA00"/>
<path d="M42.8437 45.6936H31.4437V51.4311H42.8437V45.6936Z" fill="#FFFA00"/>
<path d="M31.4437 85.7063H20.0062V91.4438H31.4437V85.7063Z" fill="#FFFA00"/>
<path d="M31.4437 39.9937H20.0062V45.6937H31.4437V39.9937Z" fill="#FFFA00"/>
<path d="M20.0062 80.0061H14.2687V85.7061H20.0062V80.0061Z" fill="#FFFA00"/>
<path d="M20.0062 34.2937H14.2687V39.9937H20.0062V34.2937Z" fill="#FFFA00"/>
<path d="M14.2687 39.9937H8.56873V80.0061H14.2687V39.9937Z" fill="#FFFA00"/>
</svg>
