<svg width="97" height="96" viewBox="0 0 97 96" fill="none" xmlns="http://www.w3.org/2000/svg">
<path d="M96.1094 24.1875H91.3594V28.9375H96.1094V24.1875Z" fill="#00DED3"/>
<path d="M91.3594 28.9375H81.8281V33.7188H91.3594V28.9375Z" fill="#00DED3"/>
<path d="M91.3594 19.4375H81.8281V24.1875H91.3594V19.4375Z" fill="#00DED3"/>
<path d="M72.2969 71.8125V76.5625H62.7969V81.3438H53.2656V86.0938H43.7344V81.3438H34.2031V76.5625H24.7031V71.8125H15.1719V67.0312H0.890625V71.8125H5.64062V76.5625H15.1719V81.3438H24.7031V86.0938H34.2031V90.8437H43.7344V95.625H53.2656V90.8437H62.7969V86.0938H72.2969V81.3438H81.8281V76.5625H91.3594V71.8125H96.1094V67.0312H81.8281V71.8125H72.2969Z" fill="#00DED3"/>
<path d="M72.2969 57.5312V62.2812H62.7969V67.0312H53.2656V71.8125H43.7344V67.0312H34.2031V62.2812H24.7031V57.5312H15.1719V52.75H0.890625V57.5312H5.64062V62.2812H15.1719V67.0312H24.7031V71.8125H34.2031V76.5625H43.7344V81.3437H53.2656V76.5625H62.7969V71.8125H72.2969V67.0312H81.8281V62.2812H91.3594V57.5312H96.1094V52.75H81.8281V57.5312H72.2969Z" fill="#00DED3"/>
<path d="M72.2969 43.25V48H62.7969V52.75H53.2656V57.5312H43.7344V52.75H34.2031V48H24.7031V43.25H15.1719V38.4688H0.890625V43.25H5.64062V48H15.1719V52.75H24.7031V57.5312H34.2031V62.2812H43.7344V67.0313H53.2656V62.2812H62.7969V57.5312H72.2969V52.75H81.8281V48H91.3594V43.25H96.1094V38.4688H81.8281V43.25H72.2969Z" fill="#00DED3"/>
<path d="M81.8281 33.7188H72.2969V38.4687H81.8281V33.7188Z" fill="#00DED3"/>
<path d="M81.8281 14.6562H72.2969V19.4375H81.8281V14.6562Z" fill="#00DED3"/>
<path d="M72.2969 38.4688H62.7969V43.25H72.2969V38.4688Z" fill="#00DED3"/>
<path d="M72.2969 9.90625H62.7969V14.6562H72.2969V9.90625Z" fill="#00DED3"/>
<path d="M62.7969 43.25H53.2656V48H62.7969V43.25Z" fill="#00DED3"/>
<path d="M62.7969 5.15625H53.2656V9.90625H62.7969V5.15625Z" fill="#00DED3"/>
<path d="M53.2656 48H43.7344V52.75H53.2656V48Z" fill="#00DED3"/>
<path d="M53.2656 0.375H43.7344V5.15625H53.2656V0.375Z" fill="#00DED3"/>
<path d="M43.7344 43.25H34.2031V48H43.7344V43.25Z" fill="#00DED3"/>
<path d="M43.7344 5.15625H34.2031V9.90625H43.7344V5.15625Z" fill="#00DED3"/>
<path d="M34.2031 38.4688H24.7031V43.25H34.2031V38.4688Z" fill="#00DED3"/>
<path d="M34.2031 9.90625H24.7031V14.6562H34.2031V9.90625Z" fill="#00DED3"/>
<path d="M24.7031 33.7188H15.1719V38.4687H24.7031V33.7188Z" fill="#00DED3"/>
<path d="M24.7031 14.6562H15.1719V19.4375H24.7031V14.6562Z" fill="#00DED3"/>
<path d="M15.1719 28.9375H5.64062V33.7188H15.1719V28.9375Z" fill="#00DED3"/>
<path d="M15.1719 19.4375H5.64062V24.1875H15.1719V19.4375Z" fill="#00DED3"/>
<path d="M5.64063 24.1875H0.890625V28.9375H5.64063V24.1875Z" fill="#00DED3"/>
</svg>
