<svg width="32" height="32" viewBox="0 0 32 32" fill="none" xmlns="http://www.w3.org/2000/svg">
<g clip-path="url(#clip0_151_1060)">
<path d="M0 16C0 7.16344 7.16344 0 16 0C24.8366 0 32 7.16344 32 16C32 24.8366 24.8366 32 16 32C7.16344 32 0 24.8366 0 16Z" fill="#FF0000"/>
<path d="M24.1766 12.0488C23.9803 11.2948 23.402 10.701 22.6676 10.4995C21.3368 10.1333 15.9999 10.1333 15.9999 10.1333C15.9999 10.1333 10.663 10.1333 9.33206 10.4995C8.5977 10.701 8.01938 11.2948 7.82311 12.0488C7.46655 13.4153 7.46655 16.2666 7.46655 16.2666C7.46655 16.2666 7.46655 19.1178 7.82311 20.4845C8.01938 21.2385 8.5977 21.8322 9.33206 22.0338C10.663 22.4 15.9999 22.4 15.9999 22.4C15.9999 22.4 21.3368 22.4 22.6676 22.0338C23.402 21.8322 23.9803 21.2385 24.1766 20.4845C24.5332 19.1178 24.5332 16.2666 24.5332 16.2666C24.5332 16.2666 24.5332 13.4153 24.1766 12.0488Z" fill="white"/>
<path d="M14.3999 19.2V13.8667L18.6666 16.5335L14.3999 19.2Z" fill="#FF0000"/>
</g>
<defs>
<clipPath id="clip0_151_1060">
<rect width="32" height="32" fill="white"/>
</clipPath>
</defs>
</svg>
